# xmcd
#
# Track frame offsets: 
#        150
#        13165
#        26370
#        39360
#        53290
#        67407
#        80835
#        95242
#        107530
#        122085
#        135292
#        152415
#        168050
#        183057
#        197230
#        211140
#        225912
#        238347
#        251015
#        269382
#
# Disc length: 3830 seconds
#
# Revision: 0
# Processed by: cddbd v1.5.2PL0 Copyright (c) Steve Scherf et al.
# Submitted via: ExactAudioCopy v0.99pb4
#
DISCID=030ef414
DTITLE=Cripple Clarence Lofton - King of the Blues 13
DYEAR=1900
DGENRE=Blues
TTITLE0=Pinetop's Boogie Woogie
TTITLE1=More Mortion
TTITLE2=Sweet Tooth
TTITLE3=Sixes and Sevens
TTITLE4=Clarence's Blues
TTITLE5=Lofty Blues
TTITLE6=House Rent Struggle
TTITLE7=Juice Joint
TTITLE8=Salty Woman Blues
TTITLE9=Blue Boogie
TTITLE10=Streamline Train
TTITLE11=I Don't Know - II
TTITLE12=Policy Blues
TTITLE13=I Don't Know
TTITLE14=The Fives
TTITLE15=Deep End Boogie (Southend Boogie)
TTITLE16=In The Morinin'
TTITLE17=Early Blues
TTITLE18=I Don't Know No.2
TTITLE19=Stramline Train (alt)
EXTD=
EXTT0=
EXTT1=
EXTT2=
EXTT3=
EXTT4=
EXTT5=
EXTT6=
EXTT7=
EXTT8=
EXTT9=
EXTT10=
EXTT11=
EXTT12=
EXTT13=
EXTT14=
EXTT15=
EXTT16=
EXTT17=
EXTT18=
EXTT19=
PLAYORDER=
